<?xml version="1.0" standalone="no"?>
<!DOCTYPE svg PUBLIC "-//W3C//DTD SVG 20010904//EN"
 "http://www.w3.org/TR/2001/REC-SVG-20010904/DTD/svg10.dtd">
<svg version="1.0" xmlns="http://www.w3.org/2000/svg"
 width="512.000000pt" height="512.000000pt" viewBox="0 0 512.000000 512.000000"
 preserveAspectRatio="xMidYMid meet">

<g transform="translate(0.000000,512.000000) scale(0.100000,-0.100000)"
fill="#000000" stroke="none">
<path d="M2375 4865 c-115 -18 -195 -41 -295 -84 -260 -112 -478 -339 -535
-558 -23 -85 -29 -273 -16 -481 l11 -183 -87 -82 c-146 -136 -143 -133 -143
-167 0 -41 39 -80 79 -80 23 0 47 15 98 61 l68 62 9 -89 c12 -120 10 -871 -3
-1229 -6 -159 -14 -519 -18 -800 -6 -503 -6 -511 15 -551 107 -208 383 -371
727 -426 104 -16 446 -16 550 0 203 33 389 103 520 197 77 54 162 147 200 217
l28 52 -6 505 c-4 278 -12 641 -18 806 -14 367 -15 1107 -3 1230 l9 90 67 -62
c78 -73 111 -81 155 -37 35 35 27 87 -19 128 -18 16 -68 62 -110 103 l-78 73
11 183 c13 205 6 395 -16 480 -57 218 -275 446 -535 558 -205 88 -447 119
-665 84z m416 -940 c217 -40 386 -125 518 -259 l65 -66 -20 -305 c-11 -168
-23 -307 -26 -310 -3 -4 -100 4 -214 17 -176 19 -263 22 -554 22 -291 0 -378
-3 -554 -22 -114 -13 -211 -21 -214 -17 -3 3 -15 142 -26 310 l-20 305 65 66
c128 130 286 211 494 254 118 24 368 26 486 5z m559 -2429 l0 -384 -67 -25
c-148 -55 -277 -85 -453 -107 -103 -12 -404 -16 -497 -5 -176 20 -377 66 -500
116 l-53 21 0 384 0 384 785 0 785 0 0 -384z"/>
</g>
</svg>
